<?xml version="1.0" encoding="utf-8"?>
<!-- Generator: Adobe Illustrator 19.1.0, SVG Export Plug-In . SVG Version: 6.00 Build 0)  -->
<svg version="1.1" id="Layer_1" xmlns="http://www.w3.org/2000/svg" xmlns:xlink="http://www.w3.org/1999/xlink" x="0px" y="0px"
	 viewBox="-388 94.1 563 467" style="enable-background:new -388 94.1 563 467;" xml:space="preserve">
<style type="text/css">
	.st0{fill:#0000FF;}
	.st1{fill:#00FF00;stroke:#00FF00;stroke-miterlimit:10;}
	.st2{fill:#FF0000;stroke:#FF0000;stroke-miterlimit:10;}
	.st3{fill:#00FFFF;stroke:#00FFFF;stroke-miterlimit:10;}
	.st4{fill:#FF00FF;stroke:#FF00FF;stroke-miterlimit:10;}
	.st5{fill:#FFFF00;stroke:#FFFF00;stroke-miterlimit:10;}
	.st6{fill:#FFFFFF;stroke:#FFFFFF;stroke-miterlimit:10;}
	.st7{fill:#0000FF;stroke:#0000FF;stroke-miterlimit:10;}
	.st8{stroke:#000000;stroke-miterlimit:10;}
	.st9{fill:url(#SVGID_1_);}
	.st10{fill:url(#SVGID_2_);}
	.st11{fill:none;stroke:#6F1D22;stroke-miterlimit:10;}
	.st12{fill:url(#SVGID_3_);stroke:#333333;stroke-miterlimit:10;}
	.st13{fill:url(#SVGID_4_);stroke:#333333;stroke-miterlimit:10;}
	.st14{fill:url(#SVGID_5_);stroke:#333333;stroke-miterlimit:10;}
	.st15{fill:url(#SVGID_6_);stroke:#333333;stroke-miterlimit:10;}
	.st16{fill:url(#SVGID_7_);stroke:#333333;stroke-miterlimit:10;}
	.st17{fill:url(#SVGID_8_);stroke:#333333;stroke-linecap:round;stroke-linejoin:round;stroke-miterlimit:10;}
	.st18{fill:none;stroke:#ED1C24;stroke-width:4;stroke-miterlimit:10;}
	.st19{fill:#ED1C24;fill-opacity:0.6;stroke:#A01826;stroke-width:4;stroke-miterlimit:10;}
	.st20{fill:url(#SVGID_9_);}
	.st21{fill:url(#SVGID_10_);}
	.st22{fill:url(#SVGID_11_);stroke:#333333;stroke-miterlimit:10;}
	.st23{fill:url(#SVGID_12_);stroke:#333333;stroke-miterlimit:10;}
	.st24{fill:url(#SVGID_13_);stroke:#333333;stroke-miterlimit:10;}
	.st25{fill:url(#SVGID_14_);stroke:#333333;stroke-miterlimit:10;}
	.st26{fill:url(#SVGID_15_);stroke:#333333;stroke-miterlimit:10;}
	.st27{fill:url(#SVGID_16_);stroke:#333333;stroke-linecap:round;stroke-linejoin:round;stroke-miterlimit:10;}
	.st28{fill:none;stroke:#E6E6E6;stroke-width:4;stroke-miterlimit:10;}
	.st29{fill:#DDDDDD;}
	.st30{font-family:'HelveticaNeue-Bold';}
	.st31{font-size:28px;}
</style>
<g>
	<g>
		<path class="st0" d="M-179.2,355c-1,29.7-17.5,55.4-41.7,69.4c0,0.9,0.1,1.9,0.1,2.8c0,30.8-16.8,57.7-41.7,72.2
			c12.3,7.1,26.5,11.2,41.7,11.2c46,0,83.3-37.3,83.3-83.3C-137.5,396.3-154.3,369.4-179.2,355z"/>
		<path class="st1" d="M-304.2,427.2c0-0.9,0-1.9,0.1-2.8c-24.2-14-40.7-39.7-41.7-69.4c-24.9,14.4-41.7,41.3-41.7,72.2
			c0,46,37.3,83.3,83.3,83.3c15.2,0,29.4-4.1,41.7-11.2C-287.4,484.9-304.2,458-304.2,427.2z"/>
		<path class="st2" d="M-262.5,355c12.3-7.1,26.5-11.2,41.7-11.2s29.4,4.1,41.6,11.1c0-0.9,0.1-1.9,0.1-2.8
			c0-46-37.3-83.3-83.3-83.3s-83.4,37.3-83.4,83.4c0,0.9,0,1.9,0.1,2.8c12.2-7.1,26.4-11.1,41.6-11.1
			C-289,343.8-274.8,347.9-262.5,355z"/>
		<path class="st3" d="M-220.8,427.2c0-0.9,0-1.9-0.1-2.8c-12.2,7.1-26.4,11.1-41.6,11.1c-15.2,0-29.4-4.1-41.6-11.1
			c0,0.9-0.1,1.9-0.1,2.8c0,30.8,16.8,57.7,41.7,72.2C-237.6,484.9-220.8,458-220.8,427.2z"/>
		<path class="st4" d="M-262.5,355c24.1,14,40.6,39.7,41.6,69.4c24.2-14,40.7-39.7,41.7-69.4c-12.2-7.1-26.4-11.1-41.6-11.1
			C-236,343.8-250.2,347.9-262.5,355z"/>
		<path class="st5" d="M-304.1,424.4c1-29.7,17.5-55.4,41.6-69.4c-12.3-7.1-26.5-11.2-41.7-11.2c-15.2,0-29.4,4.1-41.6,11.1
			C-344.8,384.7-328.3,410.4-304.1,424.4z"/>
		<path class="st6" d="M-262.5,355c-24.1,14-40.6,39.7-41.6,69.4c12.2,7.1,26.4,11.1,41.6,11.1c15.2,0,29.4-4.1,41.6-11.1
			C-221.9,394.7-238.4,369-262.5,355z"/>
	</g>
	<g>
		<path d="M-258.7,300c1.1,0,2,0.2,2.9,0.5c0.9,0.3,1.6,0.8,2.2,1.4c0.6,0.6,1.1,1.3,1.4,2.1c0.3,0.8,0.5,1.6,0.5,2.6
			c0,1.4-0.3,2.6-0.9,3.6c-0.6,1-1.6,1.8-2.9,2.3v0.1c0.6,0.2,1.2,0.5,1.6,0.8c0.4,0.4,0.8,0.8,1,1.3c0.3,0.5,0.5,1.1,0.6,1.7
			s0.2,1.2,0.2,1.8c0,0.4,0,0.8,0.1,1.3c0,0.5,0.1,1,0.1,1.6c0.1,0.5,0.1,1,0.3,1.5c0.1,0.5,0.3,0.9,0.6,1.2h-5.2
			c-0.3-0.8-0.5-1.7-0.5-2.7c-0.1-1-0.2-2-0.3-3c-0.2-1.2-0.6-2.2-1.1-2.7c-0.6-0.6-1.5-0.9-2.8-0.9h-5.2v9.3h-5.2V300L-258.7,300
			L-258.7,300z M-260.6,310.8c1.2,0,2.1-0.3,2.7-0.8s0.9-1.4,0.9-2.6s-0.3-2-0.9-2.5s-1.5-0.8-2.7-0.8h-5.7v6.7L-260.6,310.8
			L-260.6,310.8z"/>
	</g>
	<g>
		<path d="M-326.9,468.2c-1.1,0.5-2.3,0.7-3.4,0.7c-1.8,0-3.5-0.3-4.9-0.9c-1.5-0.6-2.7-1.5-3.7-2.6s-1.8-2.4-2.3-3.9
			s-0.8-3.1-0.8-4.9s0.3-3.4,0.8-4.9s1.3-2.9,2.3-4s2.2-2,3.7-2.7c1.5-0.6,3.1-1,4.9-1c1.2,0,2.4,0.2,3.6,0.6
			c1.1,0.4,2.2,0.9,3.1,1.6c0.9,0.7,1.7,1.6,2.3,2.6c0.6,1,1,2.2,1.1,3.6h-5c-0.3-1.3-0.9-2.3-1.8-3c-0.9-0.7-2-1-3.2-1
			s-2.2,0.2-3,0.7s-1.5,1.1-2,1.8c-0.5,0.8-0.9,1.6-1.1,2.6s-0.3,2-0.3,3s0.1,2,0.3,2.9s0.6,1.8,1.1,2.6c0.5,0.8,1.2,1.4,2,1.8
			c0.8,0.5,1.8,0.7,3,0.7c1.7,0,3.1-0.4,4-1.3s1.5-2.2,1.7-3.8h-5.3v-3.9h10v12.9h-3.3l-0.5-2.7
			C-324.7,466.9-325.8,467.7-326.9,468.2z"/>
	</g>
	<g>
		<path d="M-188.8,443.2c1.1,0,2.2,0.1,3.1,0.3c0.9,0.2,1.7,0.5,2.4,1s1.2,1.1,1.6,1.8c0.4,0.8,0.6,1.7,0.6,2.8c0,1.2-0.3,2.2-0.8,3
			s-1.4,1.5-2.4,2c1.5,0.4,2.6,1.2,3.3,2.2c0.7,1.1,1.1,2.3,1.1,3.8c0,1.2-0.2,2.2-0.7,3.1s-1.1,1.6-1.9,2.2s-1.7,1-2.7,1.2
			c-1,0.3-2.1,0.4-3.1,0.4H-200v-23.8H-188.8z M-189.5,452.9c0.9,0,1.7-0.2,2.3-0.7c0.6-0.4,0.9-1.2,0.9-2.2c0-0.6-0.1-1-0.3-1.4
			c-0.2-0.4-0.5-0.6-0.8-0.8c-0.3-0.2-0.7-0.3-1.1-0.4s-0.9-0.1-1.4-0.1h-4.9v5.6H-189.5z M-189.2,463c0.5,0,1-0.1,1.5-0.1
			c0.5-0.1,0.9-0.3,1.2-0.5c0.4-0.2,0.6-0.6,0.8-0.9c0.2-0.4,0.3-0.9,0.3-1.5c0-1.2-0.3-2.1-1-2.6c-0.7-0.5-1.6-0.8-2.7-0.8h-5.7
			v6.5h5.6C-189.2,463.1-189.2,463-189.2,463z"/>
	</g>
</g>
<g>
	<g>
		<path class="st3" d="M132.8,355c-1,29.7-17.5,55.4-41.7,69.4c0,0.9,0.1,1.9,0.1,2.8c0,30.8-16.8,57.7-41.7,72.2
			c12.3,7.1,26.5,11.2,41.7,11.2c46,0,83.3-37.3,83.3-83.3C174.6,396.3,157.8,369.4,132.8,355z"/>
		<path class="st4" d="M7.9,427.2c0-0.9,0-1.9,0.1-2.8c-24.2-14-40.7-39.7-41.7-69.4c-24.9,14.4-41.7,41.3-41.7,72.2
			c0,46,37.3,83.3,83.3,83.3c15.2,0,29.4-4.1,41.7-11.2C24.7,484.9,7.9,458,7.9,427.2z"/>
		<path class="st5" d="M49.6,355c12.3-7.1,26.5-11.2,41.7-11.2s29.4,4.1,41.6,11.1c0-0.9,0.1-1.9,0.1-2.8c0-46-37.3-83.3-83.3-83.3
			s-83.3,37.3-83.3,83.3c0,0.9,0,1.9,0.1,2.8c12.2-7.1,26.4-11.1,41.6-11.1C23.1,343.8,37.3,347.9,49.6,355z"/>
		<path class="st7" d="M91.2,427.2c0-0.9,0-1.9-0.1-2.8c-12.2,7.1-26.4,11.1-41.6,11.1s-29.4-4.1-41.6-11.1c0,0.9-0.1,1.9-0.1,2.8
			c0,30.8,16.8,57.7,41.7,72.2C74.5,484.9,91.2,458,91.2,427.2z"/>
		<path class="st1" d="M49.6,355c24.1,14,40.6,39.7,41.6,69.4c24.2-14,40.7-39.7,41.7-69.4c-12.2-7.1-26.4-11.1-41.6-11.1
			C76.1,343.8,61.8,347.9,49.6,355z"/>
		<path class="st2" d="M8,424.4C9,394.7,25.5,369,49.6,355c-12.3-7.1-26.5-11.2-41.7-11.2s-29.4,4.1-41.6,11.1
			C-32.7,384.7-16.2,410.4,8,424.4z"/>
		<path class="st8" d="M49.6,355C25.5,369,9,394.7,8,424.4c12.2,7.1,26.4,11.1,41.6,11.1s29.4-4.1,41.6-11.1
			C90.2,394.7,73.7,369,49.6,355z"/>
	</g>
	<g>
		<path d="M128.4,449.1c-0.3-0.5-0.7-0.9-1.2-1.3s-1-0.7-1.6-0.9c-0.6-0.2-1.2-0.3-1.9-0.3c-1.2,0-2.2,0.2-3,0.7s-1.5,1.1-2,1.8
			c-0.5,0.8-0.9,1.6-1.1,2.6s-0.3,2-0.3,3s0.1,2,0.3,2.9c0.2,0.9,0.6,1.8,1.1,2.6c0.5,0.8,1.2,1.4,2,1.8c0.8,0.5,1.8,0.7,3,0.7
			c1.6,0,2.9-0.5,3.8-1.5s1.5-2.3,1.7-3.9h5.1c-0.1,1.5-0.5,2.8-1,4c-0.6,1.2-1.3,2.2-2.2,3.1c-0.9,0.8-2,1.5-3.2,1.9
			s-2.6,0.7-4,0.7c-1.8,0-3.5-0.3-4.9-0.9c-1.5-0.6-2.7-1.5-3.7-2.6s-1.8-2.4-2.3-3.9s-0.8-3.1-0.8-4.9s0.3-3.4,0.8-4.9
			s1.3-2.9,2.3-4s2.2-2,3.7-2.7c1.5-0.6,3.1-1,4.9-1c1.3,0,2.6,0.2,3.7,0.6c1.2,0.4,2.2,0.9,3.1,1.6s1.7,1.6,2.3,2.7s1,2.3,1.1,3.7
			H129C128.9,450.1,128.7,449.6,128.4,449.1z"/>
	</g>
	<g>
		<path d="M-26.4,442.7l5.6,16.4h0.1l5.3-16.4H-8v23.8h-5v-16.9h-0.1l-5.8,16.9h-4l-5.8-16.7h-0.1v16.7h-4.9v-23.8H-26.4z"/>
	</g>
	<g>
		<path d="M38.2,300h5.9l5.6,9.4l5.5-9.4H61l-8.8,14.7v9.1H47v-9.3L38.2,300z"/>
	</g>
</g>
<g>
	
		<linearGradient id="SVGID_1_" gradientUnits="userSpaceOnUse" x1="-293.2393" y1="164.8109" x2="-228.9832" y2="164.8109" gradientTransform="matrix(1 0 0 1 0 2.2)">
		<stop  offset="0" style="stop-color:#4D4D4D"/>
		<stop  offset="0.9538" style="stop-color:#000000"/>
	</linearGradient>
	<path class="st9" d="M-272.2,193.9c0.5-0.3,0.9-0.6,1.4-0.9c0.1-0.1,0.2-0.1,0.3-0.2c0.4-0.3,0.9-0.6,1.4-0.9
		c0.1-0.1,0.2-0.1,0.3-0.2c0.5-0.3,0.9-0.6,1.4-0.9c0.1-0.1,0.2-0.1,0.3-0.2c0.5-0.4,1-0.7,1.6-1.1l0.1-0.1c1.1-0.8,2.3-1.7,3.5-2.6
		c0.1-0.1,0.2-0.2,0.4-0.3c0.4-0.3,0.9-0.7,1.3-1.1c0.2-0.2,0.4-0.3,0.6-0.5c0.4-0.3,0.8-0.6,1.1-1c0.2-0.2,0.4-0.4,0.6-0.5
		c0.4-0.3,0.7-0.6,1.1-1c0.2-0.2,0.4-0.4,0.7-0.6c0.4-0.3,0.7-0.7,1.1-1c0.2-0.2,0.4-0.4,0.6-0.6c0.4-0.4,0.8-0.7,1.2-1.1
		c0.2-0.2,0.4-0.3,0.5-0.5c0.6-0.5,1.1-1.1,1.7-1.7c0.6-0.6,1.1-1.1,1.6-1.7c0.2-0.2,0.3-0.4,0.5-0.5c0.4-0.4,0.7-0.8,1.1-1.1
		c0.2-0.2,0.4-0.4,0.6-0.6c0.3-0.4,0.6-0.7,1-1.1c0.2-0.2,0.4-0.4,0.6-0.6c0.3-0.3,0.6-0.7,0.9-1c0.2-0.2,0.4-0.4,0.5-0.6
		c0.3-0.4,0.6-0.7,0.9-1.1c0.2-0.2,0.3-0.4,0.5-0.6c0.3-0.4,0.6-0.7,0.9-1.1c0.1-0.2,0.3-0.4,0.4-0.5c0.3-0.4,0.6-0.8,0.9-1.2
		c0.1-0.1,0.2-0.3,0.3-0.4c0.3-0.5,0.7-0.9,1-1.4c0.1-0.1,0.1-0.2,0.2-0.3c3.3-4.5,5.9-8.8,7.6-12.6c1.4-3.1,2.2-5.9,2.4-8.3
		c0-0.1,0-0.2,0-0.2c0-0.2,0-0.4,0-0.6c0-0.1,0-0.2,0-0.3c0-0.2,0-0.3,0-0.5c0-0.1,0-0.2,0-0.4s0-0.3-0.1-0.4c0-0.1,0-0.3-0.1-0.4
		c0-0.1-0.1-0.3-0.1-0.4c0-0.1-0.1-0.3-0.1-0.4c0-0.1-0.1-0.2-0.1-0.3c-0.1-0.1-0.1-0.3-0.2-0.4c0-0.1-0.1-0.2-0.1-0.3
		c-0.1-0.1-0.2-0.3-0.2-0.4c0-0.1-0.1-0.1-0.1-0.2c-0.1-0.2-0.3-0.4-0.5-0.5c-0.2-0.2-0.4-0.4-0.6-0.5l0,0c-0.2-0.2-0.5-0.3-0.7-0.4
		l0,0c-6.8-3.3-23.6,5.7-39.2,21.4c-16,16-25.1,33.3-21.1,39.7c0.1,0.2,0.2,0.3,0.3,0.4c0.1,0.2,0.2,0.3,0.4,0.5s0.3,0.3,0.5,0.4
		c0.1,0,0.1,0.1,0.2,0.1c0.1,0.1,0.3,0.2,0.4,0.2s0.2,0.1,0.3,0.1c0.1,0.1,0.3,0.1,0.4,0.2c0.1,0,0.2,0.1,0.3,0.1s0.3,0.1,0.4,0.1
		c0.1,0,0.2,0.1,0.3,0.1s0.3,0.1,0.4,0.1s0.2,0,0.4,0.1c0.1,0,0.3,0,0.4,0c0.3,0,0.6,0,0.9,0c0.1,0,0.2,0,0.3,0c0.2,0,0.4,0,0.6,0
		c0.1,0,0.2,0,0.3,0c0.2,0,0.4-0.1,0.6-0.1c0.1,0,0.2,0,0.3,0c0.2,0,0.5-0.1,0.7-0.1c0.1,0,0.2,0,0.3-0.1c0.2-0.1,0.5-0.1,0.8-0.2
		c0.1,0,0.1,0,0.2-0.1c1.3-0.3,2.6-0.8,4.1-1.4l0,0C-276.5,196.3-274.5,195.2-272.2,193.9C-272.3,194-272.2,194-272.2,193.9z"/>
	<g>
		
			<image style="overflow:visible;opacity:0.9;enable-background:new    ;" width="83" height="83" xlink:href="31F6191A71F6E125.png"  transform="matrix(0.988 0 0 0.988 -311.3765 114.8057)">
		</image>
		<g>
			
				<radialGradient id="SVGID_2_" cx="-270.5" cy="154" r="22" fx="-266.7888" fy="158.1284" gradientTransform="matrix(1 0 0 1 0 2.2)" gradientUnits="userSpaceOnUse">
				<stop  offset="0" style="stop-color:#FF0000"/>
				<stop  offset="1" style="stop-color:#94272D"/>
			</radialGradient>
			<circle class="st10" cx="-270.5" cy="156.2" r="22"/>
			<circle class="st11" cx="-270.5" cy="156.2" r="22"/>
		</g>
	</g>
	
		<linearGradient id="SVGID_3_" gradientUnits="userSpaceOnUse" x1="-353.5518" y1="161.55" x2="-317.6358" y2="161.55" gradientTransform="matrix(1 0 0 1 0 2.2)">
		<stop  offset="0" style="stop-color:#4D4D4D"/>
		<stop  offset="0.9538" style="stop-color:#000000"/>
	</linearGradient>
	<polygon class="st12" points="-352.1,183.2 -353.6,181.9 -319.1,144.3 -317.6,145.7 	"/>
	
		<linearGradient id="SVGID_4_" gradientUnits="userSpaceOnUse" x1="-350.5" y1="166.05" x2="-314.6" y2="166.05" gradientTransform="matrix(1 0 0 1 0 2.2)">
		<stop  offset="0" style="stop-color:#4D4D4D"/>
		<stop  offset="0.9538" style="stop-color:#000000"/>
	</linearGradient>
	<polygon class="st13" points="-349,187.7 -350.5,186.4 -316,148.8 -314.6,150.2 	"/>
	
		<linearGradient id="SVGID_5_" gradientUnits="userSpaceOnUse" x1="-323.9813" y1="144" x2="-305.9813" y2="144" gradientTransform="matrix(1 0 0 1 0 2.2)">
		<stop  offset="0" style="stop-color:#4D4D4D"/>
		<stop  offset="0.9538" style="stop-color:#000000"/>
	</linearGradient>
	<circle class="st14" cx="-315" cy="146.2" r="9"/>
	<g>
		
			<radialGradient id="SVGID_6_" cx="-324.6419" cy="112.8285" r="33.1431" gradientTransform="matrix(1 0 0 1 0 2.2)" gradientUnits="userSpaceOnUse">
			<stop  offset="0" style="stop-color:#666666"/>
			<stop  offset="0.9538" style="stop-color:#000000"/>
		</radialGradient>
		<path class="st15" d="M-284.5,104.9l-2.4-2.4c-9.8-9.8-25.7-9.8-35.5,0c-9.8,9.8-9.8,25.7,0,35.5l0.2,0.2
			C-318.8,120.1-303.4,106.1-284.5,104.9z"/>
		
			<linearGradient id="SVGID_7_" gradientUnits="userSpaceOnUse" x1="-314.6579" y1="142.872" x2="-279.6515" y2="107.8656" gradientTransform="matrix(1 0 0 1 0 2.2)">
			<stop  offset="0" style="stop-color:#4D4D4D"/>
			<stop  offset="0.9538" style="stop-color:#000000"/>
		</linearGradient>
		<path class="st16" d="M-267.4,122.1l-17.1-17.1c-18.9,1.2-34.3,15.1-37.7,33.4l19.3,19.3L-267.4,122.1z"/>
	</g>
	
		<radialGradient id="SVGID_8_" cx="-281.7902" cy="142.2114" r="74.3444" gradientTransform="matrix(1 0 0 1 0 2.2)" gradientUnits="userSpaceOnUse">
		<stop  offset="0" style="stop-color:#666666"/>
		<stop  offset="0.9538" style="stop-color:#000000"/>
	</radialGradient>
	<path class="st17" d="M-271.2,157c15.6-15.6,32.4-24.6,39.2-21.4l-10.5-7.3c-7.4-7.7-17.9-12.5-29.4-12.5
		c-22.6,0-40.9,18.3-40.9,40.9c0,11.5,4.8,22,12.5,29.4l8.1,10.5l0,0C-296.3,190.3-287.2,173-271.2,157z"/>
	<line class="st18" x1="-246.1" y1="184.5" x2="-181.5" y2="247.1"/>
	<line class="st18" x1="-236" y1="180.2" x2="-171.4" y2="218.8"/>
	<line class="st18" x1="-248.8" y1="194.2" x2="-209" y2="259.1"/>
</g>
<g>
	<line class="st18" x1="91.2" y1="216.3" x2="123.8" y2="247.6"/>
	<line class="st18" x1="105.8" y1="201.7" x2="133.8" y2="219.3"/>
	<line class="st18" x1="77.9" y1="229.7" x2="96.3" y2="259.6"/>
	<polygon class="st19" points="63.2,256.5 48.9,235 106,188.8 147.4,194.2 	"/>
	
		<linearGradient id="SVGID_9_" gradientUnits="userSpaceOnUse" x1="12.0542" y1="164.3109" x2="76.3104" y2="164.3109" gradientTransform="matrix(1 0 0 1 0 2.2)">
		<stop  offset="0" style="stop-color:#4D4D4D"/>
		<stop  offset="0.9538" style="stop-color:#000000"/>
	</linearGradient>
	<path class="st20" d="M33.1,193.4c0.5-0.3,0.9-0.6,1.4-0.9c0.1-0.1,0.2-0.1,0.3-0.2c0.4-0.3,0.9-0.6,1.4-0.9
		c0.1-0.1,0.2-0.1,0.3-0.2c0.5-0.3,0.9-0.6,1.4-0.9c0.1-0.1,0.2-0.1,0.3-0.2c0.5-0.4,1-0.7,1.6-1.1l0.1-0.1c1.1-0.8,2.3-1.7,3.5-2.6
		c0.1-0.1,0.2-0.2,0.4-0.3c0.4-0.3,0.9-0.7,1.3-1.1c0.2-0.2,0.4-0.3,0.6-0.5c0.4-0.3,0.8-0.6,1.1-1c0.2-0.2,0.4-0.4,0.6-0.5
		c0.4-0.3,0.7-0.6,1.1-1c0.2-0.2,0.4-0.4,0.7-0.6c0.4-0.3,0.7-0.7,1.1-1c0.2-0.2,0.4-0.4,0.6-0.6c0.4-0.4,0.8-0.7,1.2-1.1
		c0.2-0.2,0.4-0.3,0.5-0.5c0.6-0.5,1.1-1.1,1.7-1.7s1.1-1.1,1.6-1.7c0.2-0.2,0.3-0.4,0.5-0.5c0.4-0.4,0.7-0.8,1.1-1.1
		c0.2-0.2,0.4-0.4,0.6-0.6c0.3-0.4,0.6-0.7,1-1.1c0.2-0.2,0.4-0.4,0.6-0.6c0.3-0.3,0.6-0.7,0.9-1c0.2-0.2,0.4-0.4,0.5-0.6
		c0.3-0.4,0.6-0.7,0.9-1.1c0.2-0.2,0.3-0.4,0.5-0.6c0.3-0.4,0.6-0.7,0.9-1.1c0.1-0.2,0.3-0.4,0.4-0.5c0.3-0.4,0.6-0.8,0.9-1.2
		c0.1-0.1,0.2-0.3,0.3-0.4c0.3-0.5,0.7-0.9,1-1.4c0.1-0.1,0.1-0.2,0.2-0.3c3.3-4.5,5.9-8.8,7.6-12.6c1.4-3.1,2.2-5.9,2.4-8.3
		c0-0.1,0-0.2,0-0.2c0-0.2,0-0.4,0-0.6c0-0.1,0-0.2,0-0.3c0-0.2,0-0.3,0-0.5c0-0.1,0-0.2,0-0.4s0-0.3-0.1-0.4c0-0.1,0-0.3-0.1-0.4
		c0-0.1-0.1-0.3-0.1-0.4c0-0.1-0.1-0.3-0.1-0.4c0-0.1-0.1-0.2-0.1-0.3c-0.1-0.1-0.1-0.3-0.2-0.4c0-0.1-0.1-0.2-0.1-0.3
		c-0.1-0.1-0.2-0.3-0.2-0.4c0-0.1-0.1-0.1-0.1-0.2c-0.1-0.2-0.3-0.4-0.5-0.5c-0.2-0.2-0.4-0.4-0.6-0.5l0,0c-0.2-0.2-0.5-0.3-0.7-0.4
		l0,0c-6.8-3.3-23.6,5.7-39.2,21.4C18,172.5,9,189.8,13,196.2c0.1,0.2,0.2,0.3,0.3,0.4c0.1,0.2,0.2,0.3,0.4,0.5s0.3,0.3,0.5,0.4
		c0.1,0,0.1,0.1,0.2,0.1c0.1,0.1,0.3,0.2,0.4,0.2s0.2,0.1,0.3,0.1c0.1,0.1,0.3,0.1,0.4,0.2c0.1,0,0.2,0.1,0.3,0.1s0.3,0.1,0.4,0.1
		s0.2,0.1,0.3,0.1s0.3,0.1,0.4,0.1s0.2,0,0.4,0.1c0.1,0,0.3,0,0.4,0c0.3,0,0.6,0,0.9,0c0.1,0,0.2,0,0.3,0c0.2,0,0.4,0,0.6,0
		c0.1,0,0.2,0,0.3,0c0.2,0,0.4-0.1,0.6-0.1c0.1,0,0.2,0,0.3,0c0.2,0,0.5-0.1,0.7-0.1c0.1,0,0.2,0,0.3-0.1c0.2-0.1,0.5-0.1,0.8-0.2
		c0.1,0,0.1,0,0.2-0.1c1.3-0.3,2.6-0.8,4.1-1.4l0,0c2-0.8,4-1.9,6.2-3.1C33,193.5,33.1,193.5,33.1,193.4z"/>
	<g>
		
			<image style="overflow:visible;opacity:0.9;enable-background:new    ;" width="82" height="82" xlink:href="31F6191A71F6E127.png"  transform="matrix(0.9878 0 0 0.9878 -5.3765 114.8057)">
		</image>
		<g>
			
				<radialGradient id="SVGID_10_" cx="34.8" cy="153.5" r="22" fx="38.5112" fy="157.6284" gradientTransform="matrix(1 0 0 1 0 2.2)" gradientUnits="userSpaceOnUse">
				<stop  offset="0" style="stop-color:#FFFFFF"/>
				<stop  offset="0.9538" style="stop-color:#CCCCCC"/>
			</radialGradient>
			<circle class="st21" cx="34.8" cy="155.7" r="22"/>
		</g>
	</g>
	
		<linearGradient id="SVGID_11_" gradientUnits="userSpaceOnUse" x1="-48.3" y1="161.05" x2="-12.4" y2="161.05" gradientTransform="matrix(1 0 0 1 0 2.2)">
		<stop  offset="0" style="stop-color:#4D4D4D"/>
		<stop  offset="0.9538" style="stop-color:#000000"/>
	</linearGradient>
	<polygon class="st22" points="-46.8,182.7 -48.3,181.4 -13.8,143.8 -12.4,145.2 	"/>
	
		<linearGradient id="SVGID_12_" gradientUnits="userSpaceOnUse" x1="-45.2" y1="165.55" x2="-9.3" y2="165.55" gradientTransform="matrix(1 0 0 1 0 2.2)">
		<stop  offset="0" style="stop-color:#4D4D4D"/>
		<stop  offset="0.9538" style="stop-color:#000000"/>
	</linearGradient>
	<polygon class="st23" points="-43.8,187.2 -45.2,185.9 -10.8,148.3 -9.3,149.7 	"/>
	
		<linearGradient id="SVGID_13_" gradientUnits="userSpaceOnUse" x1="-18.7" y1="143.5" x2="-0.7" y2="143.5" gradientTransform="matrix(1 0 0 1 0 2.2)">
		<stop  offset="0" style="stop-color:#4D4D4D"/>
		<stop  offset="0.9538" style="stop-color:#000000"/>
	</linearGradient>
	<circle class="st24" cx="-9.7" cy="145.7" r="9"/>
	<g>
		
			<radialGradient id="SVGID_14_" cx="-19.3668" cy="112.3285" r="33.1431" gradientTransform="matrix(1 0 0 1 0 2.2)" gradientUnits="userSpaceOnUse">
			<stop  offset="0" style="stop-color:#666666"/>
			<stop  offset="0.9538" style="stop-color:#000000"/>
		</radialGradient>
		<path class="st25" d="M20.8,104.4l-2.4-2.4c-9.8-9.8-25.7-9.8-35.5,0s-9.8,25.7,0,35.5l0.2,0.2C-13.5,119.6,1.9,105.6,20.8,104.4z
			"/>
		
			<linearGradient id="SVGID_15_" gradientUnits="userSpaceOnUse" x1="-9.3703" y1="142.3845" x2="25.6361" y2="107.378" gradientTransform="matrix(1 0 0 1 0 2.2)">
			<stop  offset="0" style="stop-color:#4D4D4D"/>
			<stop  offset="0.9538" style="stop-color:#000000"/>
		</linearGradient>
		<path class="st26" d="M37.9,121.6l-17.1-17.1c-18.9,1.2-34.3,15.1-37.7,33.4l19.3,19.3L37.9,121.6z"/>
	</g>
	
		<radialGradient id="SVGID_16_" cx="23.4849" cy="141.7114" r="74.3444" gradientTransform="matrix(1 0 0 1 0 2.2)" gradientUnits="userSpaceOnUse">
		<stop  offset="0" style="stop-color:#666666"/>
		<stop  offset="0.9538" style="stop-color:#000000"/>
	</radialGradient>
	<path class="st27" d="M34.1,156.5c15.6-15.6,32.4-24.6,39.2-21.4l-10.5-7.3c-7.4-7.7-17.9-12.5-29.4-12.5
		c-22.6,0-40.9,18.3-40.9,40.9c0,11.5,4.8,22,12.5,29.4l8,10.6l0,0C9,189.8,18,172.5,34.1,156.5z"/>
	<line class="st28" x1="60.2" y1="186" x2="91.2" y2="216.3"/>
	<line class="st28" x1="70.2" y1="180.7" x2="105.8" y2="201.7"/>
	<line class="st28" x1="56.4" y1="195.7" x2="77.9" y2="229.7"/>
</g>
<text transform="matrix(1 0 0 1 -357.0303 547.639)" class="st29 st30 st31">Additive Color</text>
<text transform="matrix(1 0 0 1 -67.1056 547.639)" class="st29 st30 st31">Subtractive Color</text>
</svg>
