<?xml version="1.0" encoding="utf-8"?>
<!-- Generator: Adobe Illustrator 19.0.1, SVG Export Plug-In . SVG Version: 6.00 Build 0)  -->
<svg version="1.1" id="Layer_1" xmlns="http://www.w3.org/2000/svg" xmlns:xlink="http://www.w3.org/1999/xlink" x="0px" y="0px"
	 viewBox="0 0 1020 1064" style="enable-background:new 0 0 1020 1064;" xml:space="preserve">
<style type="text/css">
	.st0{fill:url(#SVGID_1_);stroke:#000000;stroke-width:3;stroke-miterlimit:10;}
	.st1{fill:url(#SVGID_2_);stroke:#000000;stroke-width:3;stroke-miterlimit:10;}
	.st2{fill:url(#SVGID_3_);stroke:#000000;stroke-width:3;stroke-miterlimit:10;}
	.st3{fill:#FFFFFF;}
	.st4{fill:url(#SVGID_4_);}
	.st5{clip-path:url(#SVGID_6_);fill:#E6E6E6;}
	.st6{clip-path:url(#SVGID_6_);fill:#E5E5E5;}
	.st7{clip-path:url(#SVGID_6_);fill:#E4E4E4;}
	.st8{clip-path:url(#SVGID_6_);fill:#E3E3E3;}
	.st9{clip-path:url(#SVGID_6_);fill:#E2E2E2;}
	.st10{clip-path:url(#SVGID_6_);fill:#E1E1E1;}
	.st11{clip-path:url(#SVGID_6_);fill:#E0E0E0;}
	.st12{clip-path:url(#SVGID_6_);fill:#DFDFDF;}
	.st13{clip-path:url(#SVGID_6_);fill:#DEDEDE;}
	.st14{clip-path:url(#SVGID_6_);fill:#DDDDDD;}
	.st15{clip-path:url(#SVGID_6_);fill:#DCDCDC;}
	.st16{clip-path:url(#SVGID_6_);fill:#DBDBDB;}
	.st17{clip-path:url(#SVGID_6_);fill:#DADADA;}
	.st18{clip-path:url(#SVGID_6_);fill:#D9D9D9;}
	.st19{clip-path:url(#SVGID_6_);fill:#D8D8D8;}
	.st20{clip-path:url(#SVGID_6_);fill:#D7D7D7;}
	.st21{clip-path:url(#SVGID_6_);fill:#D6D6D6;}
	.st22{clip-path:url(#SVGID_6_);fill:#D5D5D5;}
	.st23{clip-path:url(#SVGID_6_);fill:#D4D4D4;}
	.st24{clip-path:url(#SVGID_6_);fill:#D3D3D3;}
	.st25{clip-path:url(#SVGID_6_);fill:#D2D2D2;}
	.st26{clip-path:url(#SVGID_6_);fill:#D1D1D1;}
	.st27{clip-path:url(#SVGID_6_);fill:#D0D0D0;}
	.st28{clip-path:url(#SVGID_6_);fill:#CFCFCF;}
	.st29{clip-path:url(#SVGID_6_);fill:#CECECE;}
	.st30{clip-path:url(#SVGID_8_);fill:#181818;}
	.st31{clip-path:url(#SVGID_8_);fill:#171717;}
	.st32{clip-path:url(#SVGID_8_);fill:#161616;}
	.st33{clip-path:url(#SVGID_8_);fill:#151515;}
	.st34{clip-path:url(#SVGID_8_);fill:#141414;}
	.st35{clip-path:url(#SVGID_8_);fill:#131313;}
	.st36{clip-path:url(#SVGID_8_);fill:#121212;}
	.st37{clip-path:url(#SVGID_8_);fill:#111111;}
	.st38{clip-path:url(#SVGID_8_);fill:#101010;}
	.st39{clip-path:url(#SVGID_8_);fill:#0F0F0F;}
	.st40{clip-path:url(#SVGID_8_);fill:#0E0E0E;}
	.st41{clip-path:url(#SVGID_8_);fill:#0D0D0D;}
	.st42{clip-path:url(#SVGID_8_);fill:#0C0C0C;}
	.st43{clip-path:url(#SVGID_8_);fill:#0B0B0B;}
	.st44{clip-path:url(#SVGID_8_);fill:#0A0A0A;}
	.st45{clip-path:url(#SVGID_8_);fill:#090909;}
	.st46{clip-path:url(#SVGID_8_);fill:#080808;}
	.st47{clip-path:url(#SVGID_8_);fill:#070707;}
	.st48{clip-path:url(#SVGID_8_);fill:#060606;}
	.st49{clip-path:url(#SVGID_8_);fill:#050505;}
	.st50{clip-path:url(#SVGID_8_);fill:#040404;}
	.st51{clip-path:url(#SVGID_8_);fill:#030303;}
	.st52{clip-path:url(#SVGID_8_);fill:#020202;}
	.st53{clip-path:url(#SVGID_8_);fill:#010101;}
	.st54{clip-path:url(#SVGID_8_);}
	.st55{clip-path:url(#SVGID_10_);fill:#808080;stroke:#000000;stroke-width:3;stroke-miterlimit:10;}
	.st56{clip-path:url(#SVGID_10_);fill:#807F80;stroke:#000000;stroke-width:3;stroke-miterlimit:10;}
	.st57{clip-path:url(#SVGID_10_);fill:#807E80;stroke:#000000;stroke-width:3;stroke-miterlimit:10;}
	.st58{clip-path:url(#SVGID_10_);fill:#817D81;stroke:#000000;stroke-width:3;stroke-miterlimit:10;}
	.st59{clip-path:url(#SVGID_10_);fill:#817C81;stroke:#000000;stroke-width:3;stroke-miterlimit:10;}
	.st60{clip-path:url(#SVGID_10_);fill:#817B81;stroke:#000000;stroke-width:3;stroke-miterlimit:10;}
	.st61{clip-path:url(#SVGID_10_);fill:#817A81;stroke:#000000;stroke-width:3;stroke-miterlimit:10;}
	.st62{clip-path:url(#SVGID_10_);fill:#827981;stroke:#000000;stroke-width:3;stroke-miterlimit:10;}
	.st63{clip-path:url(#SVGID_10_);fill:#827881;stroke:#000000;stroke-width:3;stroke-miterlimit:10;}
	.st64{clip-path:url(#SVGID_10_);fill:#827782;stroke:#000000;stroke-width:3;stroke-miterlimit:10;}
	.st65{clip-path:url(#SVGID_10_);fill:#827682;stroke:#000000;stroke-width:3;stroke-miterlimit:10;}
	.st66{clip-path:url(#SVGID_10_);fill:#827582;stroke:#000000;stroke-width:3;stroke-miterlimit:10;}
	.st67{clip-path:url(#SVGID_10_);fill:#837482;stroke:#000000;stroke-width:3;stroke-miterlimit:10;}
	.st68{clip-path:url(#SVGID_10_);fill:#837382;stroke:#000000;stroke-width:3;stroke-miterlimit:10;}
	.st69{clip-path:url(#SVGID_10_);fill:#837282;stroke:#000000;stroke-width:3;stroke-miterlimit:10;}
	.st70{clip-path:url(#SVGID_10_);fill:#837183;stroke:#000000;stroke-width:3;stroke-miterlimit:10;}
	.st71{clip-path:url(#SVGID_10_);fill:#837083;stroke:#000000;stroke-width:3;stroke-miterlimit:10;}
	.st72{clip-path:url(#SVGID_10_);fill:#846F83;stroke:#000000;stroke-width:3;stroke-miterlimit:10;}
	.st73{clip-path:url(#SVGID_10_);fill:#846E83;stroke:#000000;stroke-width:3;stroke-miterlimit:10;}
	.st74{clip-path:url(#SVGID_10_);fill:#846D83;stroke:#000000;stroke-width:3;stroke-miterlimit:10;}
	.st75{clip-path:url(#SVGID_10_);fill:#846C83;stroke:#000000;stroke-width:3;stroke-miterlimit:10;}
	.st76{clip-path:url(#SVGID_10_);fill:#856B84;stroke:#000000;stroke-width:3;stroke-miterlimit:10;}
	.st77{clip-path:url(#SVGID_10_);fill:#856A84;stroke:#000000;stroke-width:3;stroke-miterlimit:10;}
	.st78{clip-path:url(#SVGID_10_);fill:#856984;stroke:#000000;stroke-width:3;stroke-miterlimit:10;}
	.st79{clip-path:url(#SVGID_10_);fill:#856884;stroke:#000000;stroke-width:3;stroke-miterlimit:10;}
	.st80{clip-path:url(#SVGID_10_);fill:#856784;stroke:#000000;stroke-width:3;stroke-miterlimit:10;}
	.st81{clip-path:url(#SVGID_10_);fill:#866684;stroke:#000000;stroke-width:3;stroke-miterlimit:10;}
	.st82{clip-path:url(#SVGID_10_);fill:#866585;stroke:#000000;stroke-width:3;stroke-miterlimit:10;}
	.st83{clip-path:url(#SVGID_10_);fill:#866485;stroke:#000000;stroke-width:3;stroke-miterlimit:10;}
	.st84{clip-path:url(#SVGID_10_);fill:#866385;stroke:#000000;stroke-width:3;stroke-miterlimit:10;}
	.st85{clip-path:url(#SVGID_10_);fill:#866285;stroke:#000000;stroke-width:3;stroke-miterlimit:10;}
	.st86{clip-path:url(#SVGID_10_);fill:#876185;stroke:#000000;stroke-width:3;stroke-miterlimit:10;}
	.st87{clip-path:url(#SVGID_10_);fill:#876085;stroke:#000000;stroke-width:3;stroke-miterlimit:10;}
	.st88{clip-path:url(#SVGID_10_);fill:#875F86;stroke:#000000;stroke-width:3;stroke-miterlimit:10;}
	.st89{clip-path:url(#SVGID_10_);fill:#875E86;stroke:#000000;stroke-width:3;stroke-miterlimit:10;}
	.st90{clip-path:url(#SVGID_10_);fill:#885D86;stroke:#000000;stroke-width:3;stroke-miterlimit:10;}
	.st91{clip-path:url(#SVGID_10_);fill:#885C86;stroke:#000000;stroke-width:3;stroke-miterlimit:10;}
	.st92{clip-path:url(#SVGID_10_);fill:#885B86;stroke:#000000;stroke-width:3;stroke-miterlimit:10;}
	.st93{clip-path:url(#SVGID_10_);fill:#885A86;stroke:#000000;stroke-width:3;stroke-miterlimit:10;}
	.st94{clip-path:url(#SVGID_10_);fill:#885987;stroke:#000000;stroke-width:3;stroke-miterlimit:10;}
	.st95{clip-path:url(#SVGID_10_);fill:#895887;stroke:#000000;stroke-width:3;stroke-miterlimit:10;}
	.st96{clip-path:url(#SVGID_10_);fill:#895787;stroke:#000000;stroke-width:3;stroke-miterlimit:10;}
	.st97{clip-path:url(#SVGID_10_);fill:#895687;stroke:#000000;stroke-width:3;stroke-miterlimit:10;}
	.st98{clip-path:url(#SVGID_10_);fill:#895587;stroke:#000000;stroke-width:3;stroke-miterlimit:10;}
	.st99{clip-path:url(#SVGID_10_);fill:#8A5488;stroke:#000000;stroke-width:3;stroke-miterlimit:10;}
	.st100{clip-path:url(#SVGID_10_);fill:#8A5288;stroke:#000000;stroke-width:3;stroke-miterlimit:10;}
	.st101{clip-path:url(#SVGID_10_);fill:#8A5188;stroke:#000000;stroke-width:3;stroke-miterlimit:10;}
	.st102{clip-path:url(#SVGID_10_);fill:#8A5088;stroke:#000000;stroke-width:3;stroke-miterlimit:10;}
	.st103{clip-path:url(#SVGID_10_);fill:#8A4F88;stroke:#000000;stroke-width:3;stroke-miterlimit:10;}
	.st104{clip-path:url(#SVGID_10_);fill:#8B4E88;stroke:#000000;stroke-width:3;stroke-miterlimit:10;}
	.st105{clip-path:url(#SVGID_10_);fill:#8B4D89;stroke:#000000;stroke-width:3;stroke-miterlimit:10;}
	.st106{clip-path:url(#SVGID_10_);fill:#8B4C89;stroke:#000000;stroke-width:3;stroke-miterlimit:10;}
	.st107{clip-path:url(#SVGID_10_);fill:#8B4B89;stroke:#000000;stroke-width:3;stroke-miterlimit:10;}
	.st108{clip-path:url(#SVGID_10_);fill:#8B4A89;stroke:#000000;stroke-width:3;stroke-miterlimit:10;}
	.st109{clip-path:url(#SVGID_10_);fill:#8C4989;stroke:#000000;stroke-width:3;stroke-miterlimit:10;}
	.st110{clip-path:url(#SVGID_10_);fill:#8C4889;stroke:#000000;stroke-width:3;stroke-miterlimit:10;}
	.st111{clip-path:url(#SVGID_10_);fill:#8C478A;stroke:#000000;stroke-width:3;stroke-miterlimit:10;}
	.st112{clip-path:url(#SVGID_10_);fill:#8C468A;stroke:#000000;stroke-width:3;stroke-miterlimit:10;}
	.st113{clip-path:url(#SVGID_10_);fill:#8D458A;stroke:#000000;stroke-width:3;stroke-miterlimit:10;}
	.st114{clip-path:url(#SVGID_10_);fill:#8D448A;stroke:#000000;stroke-width:3;stroke-miterlimit:10;}
	.st115{clip-path:url(#SVGID_10_);fill:#8D438A;stroke:#000000;stroke-width:3;stroke-miterlimit:10;}
	.st116{clip-path:url(#SVGID_10_);fill:#8D428A;stroke:#000000;stroke-width:3;stroke-miterlimit:10;}
	.st117{clip-path:url(#SVGID_10_);fill:#8D418B;stroke:#000000;stroke-width:3;stroke-miterlimit:10;}
	.st118{clip-path:url(#SVGID_10_);fill:#8E408B;stroke:#000000;stroke-width:3;stroke-miterlimit:10;}
	.st119{clip-path:url(#SVGID_10_);fill:#8E3F8B;stroke:#000000;stroke-width:3;stroke-miterlimit:10;}
	.st120{clip-path:url(#SVGID_10_);fill:#8E3E8B;stroke:#000000;stroke-width:3;stroke-miterlimit:10;}
	.st121{clip-path:url(#SVGID_10_);fill:#8E3D8B;stroke:#000000;stroke-width:3;stroke-miterlimit:10;}
	.st122{clip-path:url(#SVGID_10_);fill:#8E3C8B;stroke:#000000;stroke-width:3;stroke-miterlimit:10;}
	.st123{clip-path:url(#SVGID_10_);fill:#8F3B8C;stroke:#000000;stroke-width:3;stroke-miterlimit:10;}
	.st124{clip-path:url(#SVGID_10_);fill:#8F3A8C;stroke:#000000;stroke-width:3;stroke-miterlimit:10;}
	.st125{clip-path:url(#SVGID_10_);fill:#8F398C;stroke:#000000;stroke-width:3;stroke-miterlimit:10;}
	.st126{clip-path:url(#SVGID_10_);fill:#8F388C;stroke:#000000;stroke-width:3;stroke-miterlimit:10;}
	.st127{clip-path:url(#SVGID_10_);fill:#90378C;stroke:#000000;stroke-width:3;stroke-miterlimit:10;}
	.st128{clip-path:url(#SVGID_10_);fill:#90368C;stroke:#000000;stroke-width:3;stroke-miterlimit:10;}
	.st129{clip-path:url(#SVGID_10_);fill:#90358D;stroke:#000000;stroke-width:3;stroke-miterlimit:10;}
	.st130{clip-path:url(#SVGID_10_);fill:#90348D;stroke:#000000;stroke-width:3;stroke-miterlimit:10;}
	.st131{clip-path:url(#SVGID_10_);fill:#90338D;stroke:#000000;stroke-width:3;stroke-miterlimit:10;}
	.st132{clip-path:url(#SVGID_10_);fill:#91328D;stroke:#000000;stroke-width:3;stroke-miterlimit:10;}
	.st133{clip-path:url(#SVGID_10_);fill:#91318D;stroke:#000000;stroke-width:3;stroke-miterlimit:10;}
	.st134{clip-path:url(#SVGID_10_);fill:#91308D;stroke:#000000;stroke-width:3;stroke-miterlimit:10;}
	.st135{clip-path:url(#SVGID_10_);fill:#912F8E;stroke:#000000;stroke-width:3;stroke-miterlimit:10;}
	.st136{clip-path:url(#SVGID_10_);fill:#912E8E;stroke:#000000;stroke-width:3;stroke-miterlimit:10;}
	.st137{clip-path:url(#SVGID_10_);fill:#922D8E;stroke:#000000;stroke-width:3;stroke-miterlimit:10;}
	.st138{clip-path:url(#SVGID_10_);fill:#922C8E;stroke:#000000;stroke-width:3;stroke-miterlimit:10;}
	.st139{clip-path:url(#SVGID_10_);fill:#922B8E;stroke:#000000;stroke-width:3;stroke-miterlimit:10;}
	.st140{clip-path:url(#SVGID_10_);fill:#922A8E;stroke:#000000;stroke-width:3;stroke-miterlimit:10;}
	.st141{clip-path:url(#SVGID_10_);fill:#93298F;stroke:#000000;stroke-width:3;stroke-miterlimit:10;}
	.st142{clip-path:url(#SVGID_10_);fill:#93288F;stroke:#000000;stroke-width:3;stroke-miterlimit:10;}
	.st143{clip-path:url(#SVGID_10_);fill:#93278F;stroke:#000000;stroke-width:3;stroke-miterlimit:10;}
	.st144{fill:url(#SVGID_11_);stroke:#000000;stroke-width:3;stroke-miterlimit:10;}
	.st145{fill:#FFFFFF;stroke:#000000;stroke-miterlimit:10;}
	.st146{fill:url(#SVGID_12_);stroke:#000000;stroke-width:3;stroke-miterlimit:10;}
	.st147{font-family:'HelveticaNeue';}
	.st148{font-size:62.8798px;}
	.st149{fill:url(#SVGID_13_);stroke:#000000;stroke-width:3;stroke-miterlimit:10;}
	.st150{fill:url(#SVGID_14_);stroke:#000000;stroke-width:3;stroke-linecap:square;stroke-miterlimit:10;}
</style>
<g>
	<linearGradient id="SVGID_1_" gradientUnits="userSpaceOnUse" x1="37.186" y1="575.5405" x2="37.186" y2="575.5405">
		<stop  offset="0" style="stop-color:#5AE2B7"/>
		<stop  offset="0.1136" style="stop-color:#40E276"/>
		<stop  offset="0.2584" style="stop-color:#56E240"/>
		<stop  offset="0.3494" style="stop-color:#96E240"/>
		<stop  offset="0.4386" style="stop-color:#C5D65A"/>
		<stop  offset="0.5589" style="stop-color:#D9C05D"/>
		<stop  offset="0.7425" style="stop-color:#E29140"/>
		<stop  offset="0.8045" style="stop-color:#E27B40"/>
		<stop  offset="1" style="stop-color:#E25151"/>
	</linearGradient>
	<path class="st0" d="M37.2,575.5"/>
	<linearGradient id="SVGID_2_" gradientUnits="userSpaceOnUse" x1="606.1875" y1="575.5405" x2="606.1875" y2="575.5405">
		<stop  offset="0" style="stop-color:#5AE2B7"/>
		<stop  offset="0.1136" style="stop-color:#40E276"/>
		<stop  offset="0.2584" style="stop-color:#56E240"/>
		<stop  offset="0.3494" style="stop-color:#96E240"/>
		<stop  offset="0.4386" style="stop-color:#C5D65A"/>
		<stop  offset="0.5589" style="stop-color:#D9C05D"/>
		<stop  offset="0.7425" style="stop-color:#E29140"/>
		<stop  offset="0.8045" style="stop-color:#E27B40"/>
		<stop  offset="1" style="stop-color:#E25151"/>
	</linearGradient>
	<path class="st1" d="M606.2,575.5"/>
	<linearGradient id="SVGID_3_" gradientUnits="userSpaceOnUse" x1="9.1777" y1="465.0413" x2="634.2041" y2="465.0413">
		<stop  offset="0" style="stop-color:#5AE2B7"/>
		<stop  offset="0.1136" style="stop-color:#40E276"/>
		<stop  offset="0.2584" style="stop-color:#56E240"/>
		<stop  offset="0.3494" style="stop-color:#96E240"/>
		<stop  offset="0.4386" style="stop-color:#C5D65A"/>
		<stop  offset="0.5589" style="stop-color:#D9C05D"/>
		<stop  offset="0.7425" style="stop-color:#E29140"/>
		<stop  offset="0.8045" style="stop-color:#E27B40"/>
		<stop  offset="1" style="stop-color:#E25151"/>
	</linearGradient>
	<path class="st2" d="M606.2,575.5C557,521.6,448.1,484,321.7,484S95.1,512.8,45.8,566.8l-8.7,8.7c-18-19.7-28-41.6-28-64.7
		c0-86.3,139.9-156.3,312.5-156.3c172.6,0,312.5,70,312.5,156.3C634.2,533.9,624.2,555.8,606.2,575.5"/>
</g>
<g>
	<line class="st3" x1="323.8" y1="96.8" x2="323.8" y2="1053.9"/>
	<g>
		<g>
			<linearGradient id="SVGID_4_" gradientUnits="userSpaceOnUse" x1="323.7705" y1="96.8041" x2="323.7705" y2="1053.8722">
				<stop  offset="0" style="stop-color:#E6E6E6"/>
				<stop  offset="1" style="stop-color:#000000"/>
			</linearGradient>
			<rect x="308.8" y="169.2" class="st4" width="30" height="812.2"/>
		</g>
		<g>
			<g>
				<g>
					<defs>
						<path id="SVGID_5_" d="M323.8,96.8c-12.6,34.1-34.2,76.4-57.1,102.6l57.1-20.6l57.1,20.6C358,173.2,336.4,130.9,323.8,96.8z"
							/>
					</defs>
					<clipPath id="SVGID_6_">
						<use xlink:href="#SVGID_5_"  style="overflow:visible;"/>
					</clipPath>
					<path class="st5" d="M380.8,96.8H266.7H380.8z"/>
					<rect x="266.7" y="96.8" class="st5" width="114.1" height="4.2"/>
					<rect x="266.7" y="101" class="st6" width="114.1" height="4.2"/>
					<rect x="266.7" y="105.1" class="st7" width="114.1" height="4.2"/>
					<rect x="266.7" y="109.3" class="st8" width="114.1" height="4.2"/>
					<rect x="266.7" y="113.4" class="st9" width="114.1" height="4.2"/>
					<rect x="266.7" y="117.6" class="st10" width="114.1" height="4.2"/>
					<rect x="266.7" y="121.8" class="st11" width="114.1" height="4.2"/>
					<rect x="266.7" y="125.9" class="st12" width="114.1" height="4.2"/>
					<rect x="266.7" y="130.1" class="st13" width="114.1" height="4.2"/>
					<rect x="266.7" y="134.3" class="st14" width="114.1" height="4.2"/>
					<rect x="266.7" y="138.4" class="st15" width="114.1" height="4.2"/>
					<rect x="266.7" y="142.6" class="st16" width="114.1" height="4.2"/>
					<rect x="266.7" y="146.7" class="st17" width="114.1" height="4.2"/>
					<rect x="266.7" y="150.9" class="st18" width="114.1" height="4.2"/>
					<rect x="266.7" y="155.1" class="st19" width="114.1" height="4.2"/>
					<rect x="266.7" y="159.2" class="st20" width="114.1" height="4.2"/>
					<rect x="266.7" y="163.4" class="st21" width="114.1" height="4.2"/>
					<rect x="266.7" y="167.5" class="st22" width="114.1" height="4.2"/>
					<rect x="266.7" y="171.7" class="st23" width="114.1" height="4.2"/>
					<rect x="266.7" y="175.9" class="st24" width="114.1" height="4.2"/>
					<rect x="266.7" y="180" class="st25" width="114.1" height="4.2"/>
					<rect x="266.7" y="184.2" class="st26" width="114.1" height="4.2"/>
					<rect x="266.7" y="188.4" class="st27" width="114.1" height="4.2"/>
					<rect x="266.7" y="192.5" class="st28" width="114.1" height="4.2"/>
					<rect x="266.7" y="196.7" class="st29" width="114.1" height="2.7"/>
				</g>
			</g>
		</g>
		<g>
			<g>
				<g>
					<defs>
						<path id="SVGID_7_" d="M323.8,1053.9c-12.6-34.1-34.2-76.4-57.1-102.6l57.1,20.6l57.1-20.6
							C358,977.5,336.4,1019.8,323.8,1053.9z"/>
					</defs>
					<clipPath id="SVGID_8_">
						<use xlink:href="#SVGID_7_"  style="overflow:visible;"/>
					</clipPath>
					<rect x="266.7" y="951.3" class="st30" width="114.1" height="2.7"/>
					<rect x="266.7" y="954" class="st31" width="114.1" height="4.2"/>
					<rect x="266.7" y="958.2" class="st32" width="114.1" height="4.2"/>
					<rect x="266.7" y="962.3" class="st33" width="114.1" height="4.2"/>
					<rect x="266.7" y="966.5" class="st34" width="114.1" height="4.2"/>
					<rect x="266.7" y="970.6" class="st35" width="114.1" height="4.2"/>
					<rect x="266.7" y="974.8" class="st36" width="114.1" height="4.2"/>
					<rect x="266.7" y="979" class="st37" width="114.1" height="4.2"/>
					<rect x="266.7" y="983.1" class="st38" width="114.1" height="4.2"/>
					<rect x="266.7" y="987.3" class="st39" width="114.1" height="4.2"/>
					<rect x="266.7" y="991.5" class="st40" width="114.1" height="4.2"/>
					<rect x="266.7" y="995.6" class="st41" width="114.1" height="4.2"/>
					<rect x="266.7" y="999.8" class="st42" width="114.1" height="4.2"/>
					<rect x="266.7" y="1003.9" class="st43" width="114.1" height="4.2"/>
					<rect x="266.7" y="1008.1" class="st44" width="114.1" height="4.2"/>
					<rect x="266.7" y="1012.3" class="st45" width="114.1" height="4.2"/>
					<rect x="266.7" y="1016.4" class="st46" width="114.1" height="4.2"/>
					<rect x="266.7" y="1020.6" class="st47" width="114.1" height="4.2"/>
					<rect x="266.7" y="1024.7" class="st48" width="114.1" height="4.2"/>
					<rect x="266.7" y="1028.9" class="st49" width="114.1" height="4.2"/>
					<rect x="266.7" y="1033.1" class="st50" width="114.1" height="4.2"/>
					<rect x="266.7" y="1037.2" class="st51" width="114.1" height="4.2"/>
					<rect x="266.7" y="1041.4" class="st52" width="114.1" height="4.2"/>
					<rect x="266.7" y="1045.6" class="st53" width="114.1" height="4.2"/>
					<rect x="266.7" y="1049.7" class="st54" width="114.1" height="4.2"/>
				</g>
			</g>
		</g>
	</g>
</g>
<g>
	<g>
		<defs>
			<line id="SVGID_9_" x1="542.8" y1="688.1" x2="323.8" y2="575.5"/>
		</defs>
		<clipPath id="SVGID_10_">
			<use xlink:href="#SVGID_9_"  style="overflow:visible;"/>
		</clipPath>
		<path class="st55" d="M323.8,575.5v112.6V575.5z"/>
		<rect x="323.8" y="575.5" class="st55" width="2.5" height="112.6"/>
		<rect x="326.2" y="575.5" class="st56" width="2.5" height="112.6"/>
		<rect x="328.7" y="575.5" class="st57" width="2.5" height="112.6"/>
		<rect x="331.1" y="575.5" class="st58" width="2.5" height="112.6"/>
		<rect x="333.6" y="575.5" class="st59" width="2.5" height="112.6"/>
		<rect x="336.1" y="575.5" class="st60" width="2.5" height="112.6"/>
		<rect x="338.5" y="575.5" class="st61" width="2.5" height="112.6"/>
		<rect x="341" y="575.5" class="st62" width="2.5" height="112.6"/>
		<rect x="343.5" y="575.5" class="st63" width="2.5" height="112.6"/>
		<rect x="345.9" y="575.5" class="st64" width="2.5" height="112.6"/>
		<rect x="348.4" y="575.5" class="st65" width="2.5" height="112.6"/>
		<rect x="350.8" y="575.5" class="st66" width="2.5" height="112.6"/>
		<rect x="353.3" y="575.5" class="st67" width="2.5" height="112.6"/>
		<rect x="355.8" y="575.5" class="st68" width="2.5" height="112.6"/>
		<rect x="358.2" y="575.5" class="st69" width="2.5" height="112.6"/>
		<rect x="360.7" y="575.5" class="st70" width="2.5" height="112.6"/>
		<rect x="363.1" y="575.5" class="st71" width="2.5" height="112.6"/>
		<rect x="365.6" y="575.5" class="st72" width="2.5" height="112.6"/>
		<rect x="368.1" y="575.5" class="st73" width="2.5" height="112.6"/>
		<rect x="370.5" y="575.5" class="st74" width="2.5" height="112.6"/>
		<rect x="373" y="575.5" class="st75" width="2.5" height="112.6"/>
		<rect x="375.5" y="575.5" class="st76" width="2.5" height="112.6"/>
		<rect x="377.9" y="575.5" class="st77" width="2.5" height="112.6"/>
		<rect x="380.4" y="575.5" class="st78" width="2.5" height="112.6"/>
		<rect x="382.8" y="575.5" class="st79" width="2.5" height="112.6"/>
		<rect x="385.3" y="575.5" class="st80" width="2.5" height="112.6"/>
		<rect x="387.8" y="575.5" class="st81" width="2.5" height="112.6"/>
		<rect x="390.2" y="575.5" class="st82" width="2.5" height="112.6"/>
		<rect x="392.7" y="575.5" class="st83" width="2.5" height="112.6"/>
		<rect x="395.1" y="575.5" class="st84" width="2.5" height="112.6"/>
		<rect x="397.6" y="575.5" class="st85" width="2.5" height="112.6"/>
		<rect x="400.1" y="575.5" class="st86" width="2.5" height="112.6"/>
		<rect x="402.5" y="575.5" class="st87" width="2.5" height="112.6"/>
		<rect x="405" y="575.5" class="st88" width="2.5" height="112.6"/>
		<rect x="407.4" y="575.5" class="st89" width="2.5" height="112.6"/>
		<rect x="409.9" y="575.5" class="st90" width="2.5" height="112.6"/>
		<rect x="412.4" y="575.5" class="st91" width="2.5" height="112.6"/>
		<rect x="414.8" y="575.5" class="st92" width="2.5" height="112.6"/>
		<rect x="417.3" y="575.5" class="st93" width="2.5" height="112.6"/>
		<rect x="419.7" y="575.5" class="st94" width="2.5" height="112.6"/>
		<rect x="422.2" y="575.5" class="st95" width="2.5" height="112.6"/>
		<rect x="424.7" y="575.5" class="st96" width="2.5" height="112.6"/>
		<rect x="427.1" y="575.5" class="st97" width="2.5" height="112.6"/>
		<rect x="429.6" y="575.5" class="st98" width="2.5" height="112.6"/>
		<rect x="432" y="575.5" class="st99" width="2.5" height="112.6"/>
		<rect x="434.5" y="575.5" class="st100" width="2.5" height="112.6"/>
		<rect x="437" y="575.5" class="st101" width="2.5" height="112.6"/>
		<rect x="439.4" y="575.5" class="st102" width="2.5" height="112.6"/>
		<rect x="441.9" y="575.5" class="st103" width="2.5" height="112.6"/>
		<rect x="444.4" y="575.5" class="st104" width="2.5" height="112.6"/>
		<rect x="446.8" y="575.5" class="st105" width="2.5" height="112.6"/>
		<rect x="449.3" y="575.5" class="st106" width="2.5" height="112.6"/>
		<rect x="451.7" y="575.5" class="st107" width="2.5" height="112.6"/>
		<rect x="454.2" y="575.5" class="st108" width="2.5" height="112.6"/>
		<rect x="456.7" y="575.5" class="st109" width="2.5" height="112.6"/>
		<rect x="459.1" y="575.5" class="st110" width="2.5" height="112.6"/>
		<rect x="461.6" y="575.5" class="st111" width="2.5" height="112.6"/>
		<rect x="464" y="575.5" class="st112" width="2.5" height="112.6"/>
		<rect x="466.5" y="575.5" class="st113" width="2.5" height="112.6"/>
		<rect x="469" y="575.5" class="st114" width="2.5" height="112.6"/>
		<rect x="471.4" y="575.5" class="st115" width="2.5" height="112.6"/>
		<rect x="473.9" y="575.5" class="st116" width="2.5" height="112.6"/>
		<rect x="476.3" y="575.5" class="st117" width="2.5" height="112.6"/>
		<rect x="478.8" y="575.5" class="st118" width="2.5" height="112.6"/>
		<rect x="481.3" y="575.5" class="st119" width="2.5" height="112.6"/>
		<rect x="483.7" y="575.5" class="st120" width="2.5" height="112.6"/>
		<rect x="486.2" y="575.5" class="st121" width="2.5" height="112.6"/>
		<rect x="488.7" y="575.5" class="st122" width="2.5" height="112.6"/>
		<rect x="491.1" y="575.5" class="st123" width="2.5" height="112.6"/>
		<rect x="493.6" y="575.5" class="st124" width="2.5" height="112.6"/>
		<rect x="496" y="575.5" class="st125" width="2.5" height="112.6"/>
		<rect x="498.5" y="575.5" class="st126" width="2.5" height="112.6"/>
		<rect x="501" y="575.5" class="st127" width="2.5" height="112.6"/>
		<rect x="503.4" y="575.5" class="st128" width="2.5" height="112.6"/>
		<rect x="505.9" y="575.5" class="st129" width="2.5" height="112.6"/>
		<rect x="508.3" y="575.5" class="st130" width="2.5" height="112.6"/>
		<rect x="510.8" y="575.5" class="st131" width="2.5" height="112.6"/>
		<rect x="513.3" y="575.5" class="st132" width="2.5" height="112.6"/>
		<rect x="515.7" y="575.5" class="st133" width="2.5" height="112.6"/>
		<rect x="518.2" y="575.5" class="st134" width="2.5" height="112.6"/>
		<rect x="520.6" y="575.5" class="st135" width="2.5" height="112.6"/>
		<rect x="523.1" y="575.5" class="st136" width="2.5" height="112.6"/>
		<rect x="525.6" y="575.5" class="st137" width="2.5" height="112.6"/>
		<rect x="528" y="575.5" class="st138" width="2.5" height="112.6"/>
		<rect x="530.5" y="575.5" class="st139" width="2.5" height="112.6"/>
		<rect x="532.9" y="575.5" class="st140" width="2.5" height="112.6"/>
		<rect x="535.4" y="575.5" class="st141" width="2.5" height="112.6"/>
		<rect x="537.9" y="575.5" class="st142" width="2.5" height="112.6"/>
		<rect x="540.3" y="575.5" class="st143" width="2.5" height="112.6"/>
		<path class="st143" d="M542.8,688.1V575.5V688.1z"/>
		<use xlink:href="#SVGID_9_"  style="overflow:visible;fill:none;stroke:#000000;stroke-width:3;stroke-miterlimit:10;"/>
	</g>
	<linearGradient id="SVGID_11_" gradientUnits="userSpaceOnUse" x1="309.3579" y1="631.8303" x2="557.2012" y2="631.8303">
		<stop  offset="0" style="stop-color:#808080"/>
		<stop  offset="0.9122" style="stop-color:#E25A71"/>
	</linearGradient>
	<path class="st144" d="M542.8,702.5c-2.2,0-4.5-0.5-6.6-1.6l-219-112.6c-7.1-3.6-9.9-12.3-6.2-19.4c3.6-7.1,12.3-9.9,19.4-6.2
		l219,112.6c7.1,3.6,9.9,12.3,6.2,19.4C553.1,699.7,548,702.5,542.8,702.5z"/>
</g>
<path class="st145" d="M634.2,524.2c0,0,0,106.4,0,129.5c0,86.3-139.9,156.3-312.5,156.3c-172.6,0-312.5-70-312.5-156.3
	c0-23.1,0-129.5,0-129.5S47,667.1,321.7,667.1C592.1,667.1,634.2,524.2,634.2,524.2z"/>
<linearGradient id="SVGID_12_" gradientUnits="userSpaceOnUse" x1="9.1777" y1="667.0535" x2="634.2041" y2="667.0535">
	<stop  offset="0" style="stop-color:#5AE2B7"/>
	<stop  offset="8.258930e-02" style="stop-color:#65D3D5"/>
	<stop  offset="0.2345" style="stop-color:#6FA8C9"/>
	<stop  offset="0.3617" style="stop-color:#7D89B8"/>
	<stop  offset="0.5094" style="stop-color:#987FA7"/>
	<stop  offset="0.6475" style="stop-color:#A07889"/>
	<stop  offset="0.8176" style="stop-color:#BB6161"/>
	<stop  offset="1" style="stop-color:#E24040"/>
</linearGradient>
<path class="st146" d="M634.2,524.2c0,0,0,106.4,0,129.5c0,86.3-139.9,156.3-312.5,156.3c-172.6,0-312.5-70-312.5-156.3
	c0-23.1,0-129.5,0-129.5S47,667.1,321.7,667.1C592.1,667.1,634.2,524.2,634.2,524.2z"/>
<text transform="matrix(1 0 0 1 178.209 753.6525)" class="st147 st148">Hue Angle</text>
<text transform="matrix(1 0 0 1 188.0806 65.3077)" class="st145 st147 st148">Lightness</text>
<text transform="matrix(1 0 0 1 784.9512 837.333)" class="st145 st147 st148">Chroma</text>
<g>
	<g>
		<linearGradient id="SVGID_13_" gradientUnits="userSpaceOnUse" x1="528.3751" y1="722.7302" x2="758.0553" y2="722.7302">
			<stop  offset="0" style="stop-color:#E25A71"/>
			<stop  offset="1" style="stop-color:#E20026"/>
		</linearGradient>
		<path class="st149" d="M681.4,771.8c-2.2,0-4.4-0.5-6.4-1.5L536.4,701c-7.1-3.6-10-12.2-6.5-19.3c3.6-7.1,12.2-10,19.3-6.5
			l138.6,69.2c7.1,3.6,10,12.2,6.5,19.3C691.8,768.8,686.7,771.8,681.4,771.8z"/>
	</g>
	<g>
		<linearGradient id="SVGID_14_" gradientUnits="userSpaceOnUse" x1="528.3792" y1="744.397" x2="758.0491" y2="744.397">
			<stop  offset="0" style="stop-color:#E25A71"/>
			<stop  offset="1" style="stop-color:#E20026"/>
		</linearGradient>
		<path class="st150" d="M662.1,763.8L631,793.4c32.3-8.4,77.9-8.8,112.6-5c-23.9-25.5-50.9-62.2-63.7-93.1l-5,42.7"/>
	</g>
</g>
</svg>
