<?xml version="1.0" encoding="utf-8"?>
<!-- Generator: Adobe Illustrator 19.0.1, SVG Export Plug-In . SVG Version: 6.00 Build 0)  -->
<svg version="1.1" id="Layer_1" xmlns="http://www.w3.org/2000/svg" xmlns:xlink="http://www.w3.org/1999/xlink" x="0px" y="0px"
	 viewBox="0 0 1138.6 828" style="enable-background:new 0 0 1138.6 828;" xml:space="preserve">
<style type="text/css">
	.st0{fill:none;stroke:#0000FF;stroke-width:12;stroke-miterlimit:10;}
	.st1{fill:none;stroke:#808080;stroke-width:21;stroke-miterlimit:10;}
	.st2{fill:#ED1C24;}
	.st3{fill:#00FF00;}
	.st4{fill:#0000FF;}
	.st5{fill:none;stroke:#00FF00;stroke-width:12;stroke-miterlimit:10;}
	.st6{fill:none;stroke:#FF0000;stroke-width:12;stroke-miterlimit:10;}
	.st7{fill:none;stroke:#000000;stroke-width:3;stroke-miterlimit:10;}
	.st8{fill:#29ABE2;stroke:#000000;stroke-width:3;stroke-miterlimit:10;}
	.st9{fill:#FCEE21;stroke:#000000;stroke-width:3;stroke-miterlimit:10;}
	.st10{fill:#39B54A;stroke:#000000;stroke-width:3;stroke-miterlimit:10;}
	.st11{fill:#ED1C24;stroke:#000000;stroke-width:3;stroke-miterlimit:10;}
	.st12{stroke:#000000;stroke-width:3;stroke-miterlimit:10;}
	.st13{fill:#FFFFFF;stroke:#000000;stroke-width:3;stroke-miterlimit:10;}
	.st14{fill:#FFFFFF;}
	.st15{font-family:'HelveticaNeue';}
	.st16{font-size:24px;}
	.st17{font-size:38.9363px;}
	.st18{fill:url(#SVGID_1_);}
	.st19{fill:url(#SVGID_2_);}
	.st20{fill:url(#SVGID_3_);}
</style>
<line class="st0" x1="191.9" y1="778" x2="261.6" y2="708.4"/>
<line class="st1" x1="444" y1="414.4" x2="742" y2="414.4"/>
<line class="st1" x1="444" y1="96.4" x2="742" y2="96.4"/>
<g>
	<polygon class="st2" points="31,593.2 31,658.9 191.9,626.1 	"/>
	<polygon class="st3" points="31,671.4 31,737.1 191.9,704.2 	"/>
	<polygon class="st4" points="31,745.4 31,811.1 191.9,778.2 	"/>
</g>
<g>
	<polygon class="st3" points="31,318.5 31,384.3 191.9,351.4 	"/>
	<polygon class="st4" points="31,427.4 31,493.2 191.9,460.3 	"/>
	<line class="st5" x1="191.9" y1="351.4" x2="250.6" y2="410"/>
	<line class="st0" x1="191.9" y1="468.7" x2="250.6" y2="410"/>
	<circle cx="250.6" cy="410" r="11"/>
</g>
<g>
	<polygon class="st2" points="31,15.9 31,81.6 191.9,48.8 	"/>
	<polygon class="st3" points="31,133.2 31,198.9 191.9,166 	"/>
	<line class="st6" x1="191.9" y1="48.8" x2="250.6" y2="107.4"/>
	<line class="st5" x1="191.9" y1="166" x2="250.6" y2="107.4"/>
	<circle cx="250.6" cy="107.4" r="11"/>
</g>
<g>
	<g>
		<line class="st7" x1="251" y1="109.4" x2="359" y2="109.4"/>
		<g>
			<path d="M377,109.4c-8.5,3.2-19.1,8.6-25.6,14.3l5.2-14.3l-5.2-14.3C357.9,100.8,368.5,106.2,377,109.4z"/>
		</g>
	</g>
</g>
<g>
	<g>
		<line class="st7" x1="251" y1="410.4" x2="359" y2="410.4"/>
		<g>
			<path d="M377,410.4c-8.5,3.2-19.1,8.6-25.6,14.3l5.2-14.3l-5.2-14.3C357.9,401.8,368.5,407.2,377,410.4z"/>
		</g>
	</g>
</g>
<circle class="st8" cx="444.1" cy="414" r="49.5"/>
<circle class="st9" cx="742.1" cy="414" r="49.5"/>
<circle class="st10" cx="444.1" cy="96" r="49.5"/>
<circle class="st11" cx="742.1" cy="96" r="49.5"/>
<g>
	<path d="M770.6,92.6v7.7h-24.7v24.8h-7.7v-24.8h-24.7v-7.7h24.7V67.8h7.7v24.8H770.6z"/>
</g>
<g>
	<path d="M770.6,410.5v7.7h-24.7V443h-7.7v-24.8h-24.7v-7.7h24.7v-24.8h7.7v24.8H770.6z"/>
</g>
<g>
	<path d="M440.2,99.8h-24.7v-7.7h24.7h7.7h24.7v7.7h-24.7"/>
</g>
<g>
	<path d="M440.2,418.2h-24.7v-7.7h24.7h7.7h24.7v7.7h-24.7"/>
</g>
<line class="st6" x1="191.9" y1="625.8" x2="261.6" y2="695.4"/>
<line class="st5" x1="192" y1="703.9" x2="251" y2="703.9"/>
<g>
	<g>
		<line class="st7" x1="262" y1="704.4" x2="359" y2="704.4"/>
		<g>
			<path d="M377,704.4c-8.5,3.2-19.1,8.6-25.6,14.3l5.2-14.3l-5.2-14.3C357.9,695.8,368.5,701.2,377,704.4z"/>
		</g>
	</g>
</g>
<circle cx="261.6" cy="704" r="11"/>
<line class="st1" x1="444" y1="704.4" x2="742" y2="704.4"/>
<circle class="st12" cx="444.1" cy="704" r="49.5"/>
<circle class="st13" cx="742.1" cy="704" r="49.5"/>
<g>
	<path d="M770.6,700.5v7.7h-24.7V733h-7.7v-24.8h-24.7v-7.7h24.7v-24.8h7.7v24.8H770.6z"/>
</g>
<g>
	<path class="st14" d="M440.2,708.2h-24.7v-7.7h24.7h7.7h24.7v7.7h-24.7"/>
</g>
<text transform="matrix(1 0 0 1 49.6118 56.9973)" class="st15 st16">R</text>
<text transform="matrix(1 0 0 1 49.6117 635.48)" class="st15 st16">R</text>
<text transform="matrix(1 0 0 1 49.6116 175.9856)" class="st15 st16">G</text>
<text transform="matrix(1 0 0 1 49.612 357.9822)" class="st15 st16">G</text>
<text transform="matrix(1 0 0 1 49.6118 715.0273)" class="st15 st16">G</text>
<text transform="matrix(1 0 0 1 49.6119 468.6765)" class="st14 st15 st16">B</text>
<text transform="matrix(1 0 0 1 49.6117 785.1517)" class="st14 st15 st16">B</text>
<text transform="matrix(1 0 0 1 416.698 198.9194)" class="st15 st17">Greenness/Redness</text>
<text transform="matrix(1 0 0 1 408.4441 510.9084)" class="st15 st17">Blueness/Yellowness</text>
<text transform="matrix(1 0 0 1 508.9763 791.3834)" class="st15 st17">Lightness</text>
<linearGradient id="SVGID_1_" gradientUnits="userSpaceOnUse" x1="835.5727" y1="707.0306" x2="1108.5591" y2="707.0306">
	<stop  offset="0" style="stop-color:#000000"/>
	<stop  offset="0.5" style="stop-color:#F7931E"/>
	<stop  offset="1" style="stop-color:#FFE79F"/>
</linearGradient>
<rect x="835.6" y="660.6" class="st18" width="273" height="92.9"/>
<linearGradient id="SVGID_2_" gradientUnits="userSpaceOnUse" x1="835.5727" y1="414.3846" x2="1108.5591" y2="414.3846">
	<stop  offset="0" style="stop-color:#3FA9F5"/>
	<stop  offset="1" style="stop-color:#FCEE21"/>
</linearGradient>
<rect x="835.6" y="367.9" class="st19" width="273" height="92.9"/>
<linearGradient id="SVGID_3_" gradientUnits="userSpaceOnUse" x1="835.5727" y1="96.4158" x2="1108.5591" y2="96.4158">
	<stop  offset="0" style="stop-color:#39B54A"/>
	<stop  offset="1" style="stop-color:#ED1C24"/>
</linearGradient>
<rect x="835.6" y="50" class="st20" width="273" height="92.9"/>
</svg>
