<?xml version="1.0" encoding="utf-8"?>
<!-- Generator: Adobe Illustrator 20.0.0, SVG Export Plug-In . SVG Version: 6.00 Build 0)  -->
<svg version="1.1" id="Layer_1" xmlns="http://www.w3.org/2000/svg" xmlns:xlink="http://www.w3.org/1999/xlink" x="0px" y="0px"
	 viewBox="0 0 1138.6 828" style="enable-background:new 0 0 1138.6 828;" xml:space="preserve">
<style type="text/css">
	.st0{fill:none;stroke:#0000FF;stroke-width:12;stroke-linecap:round;stroke-miterlimit:10;}
	.st1{fill:#ED1C24;}
	.st2{fill:#00FF00;}
	.st3{fill:#0000FF;}
	.st4{fill:none;stroke:#FF0000;stroke-width:12;stroke-linecap:round;stroke-miterlimit:10;}
	.st5{fill:none;stroke:#00FF00;stroke-width:12;stroke-linecap:round;stroke-miterlimit:10;}
	.st6{stroke:#FFFFFF;stroke-width:3;stroke-miterlimit:10;}
	.st7{fill:none;stroke:#000000;stroke-width:3;stroke-miterlimit:10;}
	.st8{font-family:'HelveticaNeue';}
	.st9{font-size:24px;}
	.st10{fill:#FFFFFF;}
	.st11{fill:none;stroke:#808080;stroke-width:21;stroke-miterlimit:10;}
	.st12{stroke:#000000;stroke-width:3;stroke-miterlimit:10;}
	.st13{fill:#FFFFFF;stroke:#000000;stroke-width:3;stroke-miterlimit:10;}
	.st14{font-size:38.9363px;}
	.st15{fill:url(#SVGID_1_);}
	.st16{fill:#29ABE2;stroke:#000000;stroke-width:3;stroke-miterlimit:10;}
	.st17{fill:#FCEE21;stroke:#000000;stroke-width:3;stroke-miterlimit:10;}
	.st18{fill:url(#SVGID_2_);}
	.st19{fill:#39B54A;stroke:#000000;stroke-width:3;stroke-miterlimit:10;}
	.st20{fill:#ED1C24;stroke:#000000;stroke-width:3;stroke-miterlimit:10;}
	.st21{fill:url(#SVGID_3_);}
	.st22{fill:none;stroke:#000000;stroke-width:12;stroke-linecap:round;stroke-miterlimit:10;}
	.st23{fill:none;stroke:#ED1C24;stroke-width:12;stroke-linecap:round;stroke-miterlimit:10;}
</style>
<line class="st0" x1="191.9" y1="778" x2="261.6" y2="708.4"/>
<g>
	<polygon class="st1" points="31,593.2 31,658.9 191.9,626.1 	"/>
	<polygon class="st2" points="31,671.4 31,737.1 191.9,704.2 	"/>
	<polygon class="st3" points="31,745.4 31,811.1 191.9,778.2 	"/>
</g>
<g>
	<polygon class="st1" points="31,17.9 31,83.6 191.9,50.8 	"/>
	<polygon class="st2" points="31,135.2 31,200.9 191.9,168 	"/>
	<line class="st4" x1="191.9" y1="50.8" x2="250.6" y2="109.4"/>
	<line class="st5" x1="191.9" y1="168" x2="250.6" y2="109.4"/>
	<circle class="st6" cx="245.2" cy="109.4" r="16.4"/>
</g>
<g>
	<g>
		<line class="st7" x1="251" y1="109.4" x2="359" y2="109.4"/>
		<g>
			<path d="M377,109.4c-8.5,3.2-19.1,8.6-25.6,14.3l5.2-14.3l-5.2-14.3C357.9,100.8,368.5,106.2,377,109.4z"/>
		</g>
	</g>
</g>
<line class="st4" x1="191.9" y1="625.8" x2="261.6" y2="695.4"/>
<line class="st5" x1="192" y1="703.9" x2="251" y2="703.9"/>
<text transform="matrix(1 0 0 1 49.6118 56.9973)" class="st8 st9">R</text>
<text transform="matrix(1 0 0 1 49.6117 635.48)" class="st8 st9">R</text>
<text transform="matrix(1 0 0 1 49.6116 175.9856)" class="st8 st9">G</text>
<text transform="matrix(1 0 0 1 49.6118 715.0273)" class="st8 st9">G</text>
<text transform="matrix(1 0 0 1 49.6117 785.1517)" class="st10 st8 st9">B</text>
<g>
	<line class="st11" x1="444" y1="704.4" x2="742" y2="704.4"/>
	<circle class="st12" cx="444.1" cy="704" r="49.5"/>
	<circle class="st13" cx="742.1" cy="704" r="49.5"/>
	<g>
		<path d="M770.6,700.5v7.7h-24.7V733h-7.7v-24.8h-24.7v-7.7h24.7v-24.8h7.7v24.8H770.6z"/>
	</g>
	<g>
		<path class="st10" d="M440.2,708.2h-24.7v-7.7h24.7h7.7h24.7v7.7h-24.7"/>
	</g>
	<text transform="matrix(1 0 0 1 508.9763 791.3834)" class="st8 st14">Lightness</text>
</g>
<linearGradient id="SVGID_1_" gradientUnits="userSpaceOnUse" x1="835.6" y1="120.95" x2="1108.6" y2="120.95" gradientTransform="matrix(1 0 0 -1 0 828)">
	<stop  offset="0" style="stop-color:#000000"/>
	<stop  offset="0.5" style="stop-color:#F7931E"/>
	<stop  offset="1" style="stop-color:#FFE79F"/>
</linearGradient>
<rect x="835.6" y="660.6" class="st15" width="273" height="92.9"/>
<g>
	<line class="st11" x1="444" y1="362.4" x2="742" y2="362.4"/>
	<circle class="st16" cx="444.1" cy="362" r="49.5"/>
	<circle class="st17" cx="742.1" cy="362" r="49.5"/>
	<g>
		<path d="M770.6,358.5v7.7h-24.7V391h-7.7v-24.8h-24.7v-7.7h24.7v-24.8h7.7v24.8H770.6z"/>
	</g>
	<g>
		<path d="M440.2,366.2h-24.7v-7.7h24.7h7.7h24.7v7.7h-24.7"/>
	</g>
	<text transform="matrix(1 0 0 1 408.4441 458.9043)" class="st8 st14">Blueness/Yellowness</text>
</g>
<linearGradient id="SVGID_2_" gradientUnits="userSpaceOnUse" x1="835.6" y1="413.65" x2="1108.6" y2="413.65" gradientTransform="matrix(1 0 0 -1 0 828)">
	<stop  offset="0" style="stop-color:#3FA9F5"/>
	<stop  offset="1" style="stop-color:#FCEE21"/>
</linearGradient>
<rect x="835.6" y="367.9" class="st18" width="273" height="92.9"/>
<g>
	<line class="st11" x1="444" y1="96.4" x2="742" y2="96.4"/>
	<circle class="st19" cx="444.1" cy="96" r="49.5"/>
	<circle class="st20" cx="742.1" cy="96" r="49.5"/>
	<g>
		<path d="M770.6,92.6v7.7h-24.7v24.8h-7.7v-24.8h-24.7v-7.7h24.7V67.8h7.7v24.8C745.9,92.6,770.6,92.6,770.6,92.6z"/>
	</g>
	<g>
		<path d="M440.2,99.8h-24.7v-7.7h24.7h7.7h24.7v7.7h-24.7"/>
	</g>
	<text transform="matrix(1 0 0 1 416.698 198.9194)" class="st8 st14">Greenness/Redness</text>
</g>
<linearGradient id="SVGID_3_" gradientUnits="userSpaceOnUse" x1="835.6" y1="731.55" x2="1108.6" y2="731.55" gradientTransform="matrix(1 0 0 -1 0 828)">
	<stop  offset="0" style="stop-color:#39B54A"/>
	<stop  offset="1" style="stop-color:#ED1C24"/>
</linearGradient>
<rect x="835.6" y="50" class="st21" width="273" height="92.9"/>
<circle class="st6" cx="262" cy="703.9" r="16.4"/>
<g>
	<g>
		<line class="st7" x1="262" y1="704.4" x2="359" y2="704.4"/>
		<g>
			<path d="M377,704.4c-8.5,3.2-19.1,8.6-25.6,14.3l5.2-14.3l-5.2-14.3C357.9,695.8,368.5,701.2,377,704.4z"/>
		</g>
	</g>
</g>
<g>
	<g>
		<polygon class="st2" points="33.2,365.2 33.2,431 194.1,398.2 		"/>
		<polygon class="st3" points="33.2,452 33.2,517.9 194.1,484.9 		"/>
		<polygon class="st1" points="33.2,279.5 33.2,345.2 194.1,312.4 		"/>
		<line class="st22" x1="246.2" y1="355.2" x2="317.3" y2="355.2"/>
		<line class="st23" x1="194.1" y1="312.4" x2="236.8" y2="355.1"/>
		<line class="st5" x1="194.1" y1="398.2" x2="236.9" y2="355.3"/>
		<circle class="st6" cx="247.2" cy="355.3" r="16.4"/>
		<line class="st0" x1="194.1" y1="484.9" x2="324.6" y2="354.4"/>
		<circle class="st6" cx="323.8" cy="355.3" r="16.4"/>
	</g>
	<g>
		<g>
			<line class="st7" x1="317.3" y1="355.2" x2="360.4" y2="355.2"/>
			<g>
				<path d="M378.4,355.2c-8.5,3.2-19.1,8.6-25.6,14.3l5.2-14.3l-5.2-14.3C359.3,346.7,369.9,352.1,378.4,355.2z"/>
			</g>
		</g>
	</g>
	<text transform="matrix(1 0 0 1 49.6115 321.8951)" class="st8 st9">R</text>
	<text transform="matrix(1 0 0 1 49.6116 408.2502)" class="st8 st9">G</text>
	<text transform="matrix(1 0 0 1 49.6116 493.1496)" class="st10 st8 st9">B</text>
</g>
</svg>
